<?xml version="1.0" encoding="UTF-8"?>
<svg xmlns="http://www.w3.org/2000/svg" height="264" width="264" class="pyqrcode"><path transform="scale(8)" stroke="#000" class="pyqrline" d="M4 4.5h7m2 0h1m1 0h1m1 0h1m2 0h1m1 0h7m-25 1h1m5 0h1m2 0h1m1 0h6m1 0h1m5 0h1m-25 1h1m1 0h3m1 0h1m1 0h2m1 0h1m1 0h1m1 0h2m1 0h1m1 0h3m1 0h1m-25 1h1m1 0h3m1 0h1m1 0h1m1 0h6m2 0h1m1 0h3m1 0h1m-25 1h1m1 0h3m1 0h1m2 0h1m1 0h2m2 0h2m1 0h1m1 0h3m1 0h1m-25 1h1m5 0h1m6 0h1m1 0h1m2 0h1m5 0h1m-25 1h7m1 0h1m1 0h1m1 0h1m1 0h1m1 0h1m1 0h7m-16 1h1m2 0h1m2 0h1m-13 1h2m1 0h2m1 0h1m3 0h1m7 0h2m-22 1h2m1 0h1m2 0h2m2 0h1m4 0h1m2 0h3m-19 1h7m1 0h1m1 0h4m2 0h1m2 0h1m1 0h1m-22 1h1m3 0h1m2 0h4m1 0h1m5 0h2m-20 1h4m2 0h1m2 0h1m1 0h3m1 0h2m1 0h1m2 0h1m-25 1h3m1 0h1m3 0h4m4 0h1m3 0h3m-23 1h2m1 0h4m1 0h1m2 0h1m2 0h1m1 0h2m1 0h2m2 0h2m-25 1h1m3 0h2m1 0h4m2 0h3m1 0h3m1 0h2m1 0h1m-25 1h1m1 0h1m2 0h4m5 0h1m1 0h9m-17 1h5m2 0h2m3 0h4m-24 1h7m1 0h1m4 0h4m1 0h1m1 0h1m2 0h2m-25 1h1m5 0h1m3 0h2m4 0h1m3 0h2m1 0h1m-24 1h1m1 0h3m1 0h1m1 0h4m2 0h8m-22 1h1m1 0h3m1 0h1m1 0h1m2 0h1m1 0h4m1 0h1m2 0h1m2 0h1m-25 1h1m1 0h3m1 0h1m2 0h1m3 0h3m1 0h2m1 0h2m1 0h2m-25 1h1m5 0h1m3 0h3m1 0h1m1 0h1m2 0h1m1 0h4m-25 1h7m2 0h3m1 0h2m2 0h1m2 0h2m2 0h1"/></svg>
